<svg width="44" height="36" viewBox="0 0 44 36" fill="none" xmlns="http://www.w3.org/2000/svg">
<path d="M19.1063 0L0 3.82189L20.9141 0.422278L19.1063 0ZM20.9141 0.422278L1.76291 4.327L22.7595 0.853338L20.9141 0.422278ZM22.7595 0.853338L3.56599 4.84361L24.6437 1.29346L22.7595 0.853338ZM24.6437 1.29346L5.41062 5.37213L26.5679 1.74293L24.6437 1.29346ZM0 3.82189L1.76291 4.327L20.9141 0.422278L0 3.82189ZM0.392337 30.2303L2.08943 31.001L1.76291 4.327L0.392337 30.2303ZM26.5679 1.74293L7.29825 5.91297L28.5334 2.20205L26.5679 1.74293ZM1.76291 4.327L3.56599 4.84361L22.7595 0.853338L1.76291 4.327ZM0 3.82189L0.392337 30.2303L1.76291 4.327L0 3.82189ZM2.08943 31.001L3.82363 31.7885L3.56599 4.84361L2.08943 31.001ZM28.5334 2.20205L9.23042 6.46657L30.5416 2.67114L28.5334 2.20205ZM3.56599 4.84361L5.41062 5.37213L24.6437 1.29346L3.56599 4.84361ZM1.76291 4.327L2.08943 31.001L3.56599 4.84361L1.76291 4.327ZM3.82363 31.7885L5.59617 32.5934L5.41062 5.37213L3.82363 31.7885Z" fill="#0E0C0C"/>
<path d="M31.7171 29.2048L32.5935 3.15039L13.2344 7.61377L31.7171 29.2048Z" fill="#989797"/>
<path d="M30.5429 2.6704L11.21 7.03265L32.5952 3.14977L30.5429 2.6704ZM5.41192 5.37139L7.29956 5.91223L26.5692 1.74219L5.41192 5.37139ZM3.56729 4.84287L3.82493 31.7877L5.41192 5.37139L3.56729 4.84287ZM5.59747 32.5927L7.40965 33.4156L7.29956 5.91223L5.59747 32.5927ZM7.29956 5.91223L9.23172 6.46583L28.5347 2.20131L7.29956 5.91223Z" fill="#0E0C0C"/>
<path d="M13.236 7.61328L13.0976 35.9986L31.7187 29.2043L13.236 7.61328Z" fill="#989797"/>
<path d="M5.41232 5.37287L5.59788 32.5941L7.29996 5.91371L5.41232 5.37287ZM7.41005 33.417L9.26319 34.2586L9.23212 6.46731L7.41005 33.417ZM9.23212 6.46731L11.2104 7.03413L30.5433 2.67188L9.23212 6.46731ZM7.29996 5.91371L7.41005 33.417L9.23212 6.46731L7.29996 5.91371ZM9.26319 34.2586L11.1587 35.1193L11.2104 7.03413L9.26319 34.2586ZM11.2104 7.03413L13.2365 7.61464L32.5956 3.15125L11.2104 7.03413ZM9.23212 6.46731L9.26319 34.2586L11.2104 7.03413L9.23212 6.46731ZM11.1587 35.1193L13.0981 36L13.2365 7.61464L11.1587 35.1193ZM11.2104 7.03413L11.1587 35.1193L13.2365 7.61464L11.2104 7.03413Z" fill="#0E0C0C"/>
<ellipse cx="32" cy="23.5" rx="12" ry="12.5" fill="url(#paint0_radial_102_12)"/>
<defs>
<radialGradient id="paint0_radial_102_12" cx="0" cy="0" r="1" gradientUnits="userSpaceOnUse" gradientTransform="translate(38.9091 19.7687) rotate(133.466) scale(18.7652 18.4658)">
<stop stop-color="white"/>
<stop offset="1" stop-color="#0E0C0C"/>
</radialGradient>
</defs>
</svg>
